<?xml version="1.0" encoding="iso-8859-1"?>
<!-- Uploaded to: SVG Repo, www.svgrepo.com, Generator: SVG Repo Mixer Tools -->
<svg fill="#000000" height="800px" width="800px" version="1.1" id="Layer_1" xmlns="http://www.w3.org/2000/svg" xmlns:xlink="http://www.w3.org/1999/xlink" 
	 viewBox="0 0 472.615 472.615" xml:space="preserve">
<g>
	<g>
		<polygon points="472.615,403.692 472.615,354.428 0,354.428 0,403.692 147.692,403.692 147.692,452.923 108.308,452.923 
			108.308,472.615 364.308,472.615 364.308,452.923 324.923,452.923 324.923,403.692 		"/>
	</g>
</g>
<g>
	<g>
		<path d="M0,0v334.736h472.615V0H0z M236.308,39.351c24.971,0,45.288,20.318,45.288,45.288c0,24.981-20.318,45.298-45.288,45.298
			c-24.971,0-45.289-20.318-45.289-45.298C191.019,59.669,211.337,39.351,236.308,39.351z M137.846,196.082
			c0-28.039,18.048-52.299,44.913-60.366l11.299-3.337l42.25,32.865l42.25-32.865l11.26,3.327
			c26.904,8.077,44.952,32.337,44.952,60.376v40.192H137.846V196.082z M324.923,315.043H147.692v-19.692h177.231V315.043z
			 M374.154,275.659H98.462v-19.692h275.692V275.659z"/>
	</g>
</g>
</svg>